<svg width="625" height="179" viewBox="0 0 625 179" fill="none" xmlns="http://www.w3.org/2000/svg">
<path d="M618 90.772L606.439 69.1216C594.351 95.5245 556.721 96.5722 542.006 67.0009L532 91.9486C553.021 114.655 591.724 120.343 618 90.772Z" fill="black"/>
<path d="M552.391 46.2191L607.159 46.0001L615.879 38.5304L624.5 29.9987C616.361 46.8097 607.305 65.9987 607.305 65.9987H543.5L552.391 46.2191Z" fill="black"/>
<path d="M607.115 45.5587C599.245 21.5995 564.614 13.2659 548.349 34.6208C541.264 45.546 539.633 54.7182 542.058 66.9117L532.089 91.9145C514.249 72.1202 515.818 35.1375 534.708 16.3854C558.324 -8.09141 606.59 -6.0057 624.43 29.9331C616.03 38.7876 607.115 45.5587 607.115 45.5587Z" fill="black"/>
<path d="M196 62.0244V3.50092H222V18.0241C222 18.0241 226.915 11.5383 238 6.50092C249 1.50219 265.5 3.15863 275.5 9.00092C297 20.0009 306 54.9778 291 79.0009H275.5L288.5 109.524H258L238 79.5243H257.5C270.5 73.5321 280.364 50.5009 268.5 36.0009C255 19.5009 222 29.0322 222 54.0322V69.0235V109.524H218L207.5 85.5009L196 62.0244Z" fill="black"/>
<path d="M472 63.0732V3.00085H498.263V10.0392V16.1064C498.263 16.1064 505.439 3.00141 511.5 3.00141L549.5 3.00085C536.026 9.97639 530.144 15.2142 524 27.5009C524 27.5009 499.088 24.9143 498.263 34.0009C497.758 39.5591 498.263 61.0279 498.263 68.0975V110.001H494.727H472V63.0732Z" fill="black"/>
<path d="M466 65.1024V110.021H461.5H440V62.5211V5.00085C440 5.00085 466 16.7153 466 31.1029V65.1024Z" fill="black"/>
<path d="M466.5 25.0009C463 18.0009 458 11.0009 440 3.00085C440 3.00085 464.971 3.0034 466.5 3.00705V25.0009Z" fill="black"/>
<path d="M318.995 42.0024C308.448 41.999 299 42.0024 299 42.0024C303 53.5013 297 71.4461 297 71.4461H306H322C322 71.4461 329.5 70.9461 331.5 75.4461C333 79.9461 328 80.5008 328 80.5008H275L288.5 109.501H317.496C320.997 109.501 346.926 110.956 353 96.4461C362 74.9461 352.463 57.9402 351 55.4461C344.548 44.444 331.5 42.0064 318.995 42.0024Z" fill="black"/>
<path d="M311.5 25.0009C301.258 27.315 297 33.5009 297 33.5009C297 33.5009 296 29.5009 292.5 23.5009C289 17.5009 285 13.9996 285 13.9996C324.5 -9.99827 358.5 15.4123 358.5 15.4164C358.5 15.4164 345.346 35.5186 342.423 32.5589C336.525 26.587 320 23.0803 311.5 25.0009Z" fill="black"/>
<path d="M357 60.4425V8.49681C357 8.49681 405.5 -8.50122 427 16.4983C440.5 29.5009 446.5 68.9616 408.5 81.0375H385.5L394 61.4964C405 61.4964 409 61.0009 411.5 59.5009C414.5 58.5009 422.87 41.1684 412.5 30.0009C406 23.0009 403 23.0009 383 23.0009V60.4425L383 109.496H357V60.4425Z" fill="black"/>
<path d="M86.7668 109.506L71.1942 109.506C67.8326 109.506 64.6959 107.817 62.8455 105.01L33.5 60.5009C33.5 60.5009 48.2705 75.5593 53.5 78.5009C85.5 96.5009 92.711 37.5184 100.5 17.5009C103.828 8.94845 111.456 3.00085 114 3.00085H135L96.0877 103.128C94.5935 106.973 90.8918 109.506 86.7668 109.506Z" fill="black"/>
<path d="M170.639 82.7845L157.18 109.384C157.18 109.384 135.75 109.901 128.771 108.897C121.793 107.894 119.536 106.464 115.313 103.377C110.183 99.6279 106.334 94.8447 104.345 91.3315C102.356 87.8183 98.8647 74.7693 100.364 66.7391C101.863 58.709 105.751 53.7146 110.323 49.1732C114.895 44.6317 120.294 41.6449 125.279 40.1393C130.264 38.6336 132.258 38.6336 137.739 38.6336C143.221 38.6336 150.7 41.1281 150.7 41.1281C150.7 41.1281 150 34.0096 148 31.5096C145.702 28.6376 141.734 27.5773 137.739 27.5773H127C127 27.5773 136 3.50085 137 3.50085C138 3.50086 138.779 3.50214 144 3.50085C150.446 3.49927 157.524 7.17407 162.165 11.5348C184.596 32.6139 216 109.384 216 109.384H185.593L169.642 76.7619C169.642 76.7619 165.492 68.371 158.675 63.7129C151.886 59.0736 141.959 58.6209 137.739 62.7091C133.519 66.7973 132.787 72.3421 134.25 76.7619C136.244 82.7845 143.721 82.7845 143.721 82.7845H170.639Z" fill="black"/>
<path d="M22 36.5009L10.3708 19.0653C5.93842 12.4199 10.7021 3.51648 18.6901 3.51648H40.5C40.5 3.51648 26 5.50085 22 14.0009C18 22.5009 22 36.5009 22 36.5009Z" fill="black"/>
<path d="M33.744 156.001V122.401H37.104V156.001H33.744ZM71.4521 156.001V122.401H74.8121L93.3881 150.385V122.401H96.7481V156.001H93.3881L74.8121 127.969V156.001H71.4521ZM131.098 156.001V122.401H134.458L153.034 150.385V122.401H156.394V156.001H153.034L134.458 127.969V156.001H131.098ZM205.527 156.577C202.327 156.577 199.511 155.857 197.079 154.417C194.647 152.945 192.743 150.913 191.367 148.321C190.023 145.697 189.351 142.657 189.351 139.201C189.351 135.777 190.023 132.769 191.367 130.177C192.743 127.553 194.647 125.505 197.079 124.033C199.511 122.561 202.327 121.825 205.527 121.825C208.823 121.825 211.687 122.561 214.119 124.033C216.551 125.505 218.423 127.553 219.735 130.177C221.079 132.769 221.751 135.777 221.751 139.201C221.751 142.657 221.079 145.697 219.735 148.321C218.423 150.913 216.551 152.945 214.119 154.417C211.687 155.857 208.823 156.577 205.527 156.577ZM205.575 153.649C208.103 153.649 210.327 153.073 212.247 151.921C214.167 150.769 215.655 149.121 216.711 146.977C217.767 144.801 218.295 142.209 218.295 139.201C218.295 136.193 217.767 133.617 216.711 131.473C215.655 129.329 214.167 127.681 212.247 126.529C210.327 125.377 208.103 124.801 205.575 124.801C203.047 124.801 200.823 125.377 198.903 126.529C196.983 127.681 195.479 129.329 194.391 131.473C193.335 133.617 192.807 136.193 192.807 139.201C192.807 142.209 193.335 144.801 194.391 146.977C195.479 149.121 196.983 150.769 198.903 151.921C200.823 153.073 203.047 153.649 205.575 153.649ZM263.565 156.001L250.845 122.401H254.493L265.485 152.353L276.621 122.401H280.173L267.405 156.001H263.565ZM305.062 156.001L317.446 122.401H320.902L333.286 156.001H329.734L319.174 126.817L308.566 156.001H305.062ZM310.726 146.929L311.734 144.145H326.566L327.574 146.929H310.726ZM369.489 156.001V125.185H359.409V122.401H382.929V125.185H372.849V156.001H369.489ZM415.029 156.001V122.401H418.389V156.001H415.029ZM467.521 156.577C464.321 156.577 461.505 155.857 459.073 154.417C456.641 152.945 454.737 150.913 453.361 148.321C452.017 145.697 451.345 142.657 451.345 139.201C451.345 135.777 452.017 132.769 453.361 130.177C454.737 127.553 456.641 125.505 459.073 124.033C461.505 122.561 464.321 121.825 467.521 121.825C470.817 121.825 473.681 122.561 476.113 124.033C478.545 125.505 480.417 127.553 481.729 130.177C483.073 132.769 483.745 135.777 483.745 139.201C483.745 142.657 483.073 145.697 481.729 148.321C480.417 150.913 478.545 152.945 476.113 154.417C473.681 155.857 470.817 156.577 467.521 156.577ZM467.569 153.649C470.097 153.649 472.321 153.073 474.241 151.921C476.161 150.769 477.649 149.121 478.705 146.977C479.761 144.801 480.289 142.209 480.289 139.201C480.289 136.193 479.761 133.617 478.705 131.473C477.649 129.329 476.161 127.681 474.241 126.529C472.321 125.377 470.097 124.801 467.569 124.801C465.041 124.801 462.817 125.377 460.897 126.529C458.977 127.681 457.473 129.329 456.385 131.473C455.329 133.617 454.801 136.193 454.801 139.201C454.801 142.209 455.329 144.801 456.385 146.977C457.473 149.121 458.977 150.769 460.897 151.921C462.817 153.073 465.041 153.649 467.569 153.649ZM516.742 156.001V122.401H520.102L538.678 150.385V122.401H542.038V156.001H538.678L520.102 127.969V156.001H516.742ZM586.852 156.577C584.388 156.577 582.244 156.129 580.42 155.233C578.628 154.337 577.252 153.089 576.292 151.489C575.332 149.857 574.852 148.001 574.852 145.921H578.356C578.356 147.329 578.676 148.625 579.316 149.809C579.956 150.993 580.9 151.953 582.148 152.689C583.396 153.393 584.964 153.745 586.852 153.745C588.516 153.745 589.908 153.473 591.028 152.929C592.18 152.353 593.06 151.601 593.668 150.673C594.276 149.745 594.58 148.689 594.58 147.505C594.58 146.097 594.276 144.961 593.668 144.097C593.092 143.233 592.292 142.529 591.268 141.985C590.244 141.441 589.076 140.977 587.764 140.593C586.484 140.177 585.124 139.729 583.684 139.249C581.092 138.353 579.188 137.249 577.972 135.937C576.756 134.625 576.132 132.945 576.1 130.897C576.1 129.137 576.5 127.585 577.3 126.241C578.132 124.865 579.332 123.793 580.9 123.025C582.468 122.225 584.324 121.825 586.468 121.825C588.548 121.825 590.356 122.225 591.892 123.025C593.46 123.793 594.676 124.881 595.54 126.289C596.404 127.665 596.836 129.249 596.836 131.041H593.38C593.38 130.017 593.108 129.025 592.564 128.065C592.052 127.073 591.268 126.273 590.212 125.665C589.188 125.025 587.876 124.705 586.276 124.705C584.964 124.705 583.796 124.945 582.772 125.425C581.78 125.873 580.996 126.545 580.42 127.441C579.844 128.305 579.556 129.329 579.556 130.513C579.556 131.665 579.812 132.609 580.324 133.345C580.836 134.081 581.556 134.689 582.484 135.169C583.412 135.649 584.5 136.097 585.748 136.513C586.996 136.897 588.388 137.345 589.924 137.857C591.492 138.401 592.884 139.057 594.1 139.825C595.316 140.593 596.276 141.585 596.98 142.801C597.684 143.985 598.036 145.489 598.036 147.313C598.036 148.881 597.62 150.385 596.788 151.825C595.988 153.233 594.756 154.385 593.092 155.281C591.428 156.145 589.348 156.577 586.852 156.577Z" fill="black"/>
</svg>
